<svg width="263" height="80" viewBox="0 0 263 80" fill="none" xmlns="http://www.w3.org/2000/svg">
<path fill-rule="evenodd" clip-rule="evenodd" d="M0.0625123 11.722C22.8451 -3.21983 45.6277 -4.00932 68.4104 10.1138C68.1495 10.7132 67.1785 13.184 65.5118 14.1051C43.7147 2.73058 24.5843 6.78037 9.13498 17.1461C8.30889 40.5383 17.7292 58.8136 35.4393 70.1881C36.2654 56.5474 42.8741 41.2986 62.8886 29.8218C43.3089 37.1757 36.3234 50.2169 34.6567 60.1001C27.106 42.5267 38.0625 32.4534 52.7727 26.3129C62.0915 22.9941 68.2654 21.035 70.9031 11.7366C71.7147 41.1816 60.135 63.0242 35.4828 76.8549C11.048 62.8926 -0.980966 41.3132 0.0625123 11.722Z" fill="#A0F16B"/>
<path d="M117.387 48.9505C114.297 52.1351 110.372 53.7274 105.611 53.7274C101.953 53.7274 98.9261 52.7026 96.5298 50.6532C94.1335 48.6037 92.9354 45.7187 92.9354 41.9981V30.5527C92.9354 26.8321 94.102 23.9629 96.4352 21.9449C98.7685 19.8955 101.717 18.8707 105.279 18.8707C109.504 18.8707 113.241 19.9901 116.488 22.2287C116.835 22.4179 116.883 22.6701 116.63 22.9854L115.022 25.2083C114.865 25.4605 114.628 25.5078 114.313 25.3502C111.601 23.553 108.59 22.6544 105.279 22.6544C102.725 22.6544 100.692 23.3638 99.1783 24.7826C97.6964 26.17 96.9555 28.1248 96.9555 30.6473V41.9981C96.9555 44.5205 97.7437 46.4754 99.3202 47.8627C100.897 49.2185 102.993 49.8964 105.611 49.8964C108.858 49.8964 111.522 49.0136 113.603 47.2479V38.451H105.847C105.5 38.451 105.327 38.2776 105.327 37.9307V35.2822C105.327 34.9354 105.5 34.7619 105.847 34.7619H117.056C117.403 34.7619 117.576 34.9354 117.576 35.2822V48.3357C117.576 48.6195 117.513 48.8244 117.387 48.9505Z" fill="white"/>
<path d="M126.964 53.2071H124.173C123.826 53.2071 123.653 53.0337 123.653 52.6869V30.6C123.653 30.2847 123.779 30.0797 124.031 29.9851C126.459 28.8185 129.155 28.2352 132.119 28.2352C133.538 28.2352 135.161 28.3613 136.99 28.6136C137.305 28.6451 137.463 28.85 137.463 29.2284V31.5459C137.463 31.9558 137.274 32.1134 136.896 32.0188C135.351 31.7981 133.932 31.6878 132.639 31.6878C130.779 31.6878 129.076 32.0031 127.531 32.6337V52.6869C127.531 53.0337 127.342 53.2071 126.964 53.2071Z" fill="white"/>
<path d="M159.988 37.647V42.2819C159.988 42.6603 159.814 42.8494 159.468 42.8494H144.002V44.8358C144.002 46.57 144.57 47.91 145.705 48.8559C146.84 49.8019 148.322 50.2748 150.15 50.2748C152.736 50.2748 155.148 49.392 157.387 47.6263C157.702 47.4371 157.954 47.4844 158.143 47.7682L159.515 49.5654C159.736 49.8176 159.704 50.0699 159.42 50.3221C156.709 52.5923 153.587 53.7274 150.056 53.7274C147.313 53.7274 144.964 52.9549 143.009 51.4099C141.054 49.8334 140.077 47.642 140.077 44.8358V37.647C140.077 34.5885 141.038 32.2553 142.962 30.6473C144.916 29.0392 147.297 28.2352 150.103 28.2352C152.878 28.2352 155.211 29.0392 157.103 30.6473C159.026 32.2553 159.988 34.5885 159.988 37.647ZM156.204 37.647C156.204 35.7236 155.637 34.2575 154.502 33.2485C153.398 32.2395 151.932 31.735 150.103 31.735C148.243 31.735 146.761 32.2395 145.657 33.2485C144.554 34.2259 144.002 35.6921 144.002 37.647V39.6334H156.204V37.647Z" fill="white"/>
<path d="M184.467 37.647V42.2819C184.467 42.6603 184.293 42.8494 183.947 42.8494H168.481V44.8358C168.481 46.57 169.049 47.91 170.184 48.8559C171.319 49.8019 172.801 50.2748 174.629 50.2748C177.215 50.2748 179.627 49.392 181.866 47.6263C182.181 47.4371 182.433 47.4844 182.622 47.7682L183.994 49.5654C184.215 49.8176 184.183 50.0699 183.899 50.3221C181.188 52.5923 178.066 53.7274 174.535 53.7274C171.792 53.7274 169.443 52.9549 167.488 51.4099C165.533 49.8334 164.556 47.642 164.556 44.8358V37.647C164.556 34.5885 165.517 32.2553 167.441 30.6473C169.395 29.0392 171.776 28.2352 174.582 28.2352C177.357 28.2352 179.69 29.0392 181.582 30.6473C183.505 32.2553 184.467 34.5885 184.467 37.647ZM180.683 37.647C180.683 35.7236 180.116 34.2575 178.981 33.2485C177.877 32.2395 176.411 31.735 174.582 31.735C172.722 31.735 171.24 32.2395 170.136 33.2485C169.033 34.2259 168.481 35.6921 168.481 37.647V39.6334H180.683V37.647Z" fill="white"/>
<path d="M193.149 53.2071H190.359C190.012 53.2071 189.839 53.0337 189.839 52.6869V30.7418C189.839 30.4265 189.965 30.2058 190.217 30.0797C193.149 28.85 196.176 28.2352 199.298 28.2352C202.608 28.2352 205.21 29.0707 207.101 30.7418C208.993 32.4129 209.939 34.9827 209.939 38.451V52.6869C209.939 53.0337 209.75 53.2071 209.372 53.2071H206.581C206.234 53.2071 206.061 53.0337 206.061 52.6869V38.5456C206.061 34.0052 203.806 31.735 199.298 31.735C197.343 31.735 195.483 32.0188 193.717 32.5864V52.6869C193.717 53.0337 193.528 53.2071 193.149 53.2071Z" fill="white"/>
<path d="M236.124 44.4575C236.124 47.2637 235.178 49.5181 233.286 51.2207C231.426 52.8918 228.903 53.7274 225.719 53.7274C222.534 53.7274 219.996 52.876 218.104 51.1734C216.244 49.4708 215.314 47.2321 215.314 44.4575V37.647C215.314 34.8408 216.26 32.5706 218.152 30.8364C220.043 29.1023 222.566 28.2352 225.719 28.2352C228.903 28.2352 231.426 29.1023 233.286 30.8364C235.178 32.5706 236.124 34.8408 236.124 37.647V44.4575ZM219.239 44.4575C219.239 46.2547 219.791 47.6736 220.895 48.7141C222.03 49.7546 223.638 50.2748 225.719 50.2748C227.8 50.2748 229.408 49.7546 230.543 48.7141C231.678 47.6736 232.245 46.2547 232.245 44.4575V37.647C232.245 35.8182 231.678 34.3836 230.543 33.3431C229.408 32.2711 227.8 31.735 225.719 31.735C223.638 31.735 222.03 32.2711 220.895 33.3431C219.791 34.3836 219.239 35.8182 219.239 37.647V44.4575Z" fill="white"/>
<path d="M251.471 40.863L259.701 52.545C259.985 52.9864 259.874 53.2071 259.37 53.2071H255.87C255.586 53.2071 255.381 53.0968 255.255 52.876L249.107 43.5589L242.958 52.876C242.832 53.0968 242.611 53.2071 242.296 53.2071H238.796C238.292 53.2071 238.181 52.9864 238.465 52.545L246.695 40.863L238.985 29.4176C238.859 29.2599 238.828 29.118 238.891 28.9919C238.954 28.8343 239.096 28.7554 239.317 28.7554H242.627C242.879 28.7554 243.1 28.8816 243.289 29.1338L249.107 38.1199L254.924 29.1338C255.113 28.8816 255.318 28.7554 255.539 28.7554H258.849C259.07 28.7554 259.212 28.8343 259.275 28.9919C259.37 29.118 259.354 29.2599 259.228 29.4176L251.471 40.863Z" fill="white"/>
<path d="M155.133 79.1227H154.206C154.085 79.1227 154.024 79.0565 154.024 78.9241V75.8286C154.024 75.7072 154.085 75.6465 154.206 75.6465H154.571C154.957 75.4148 155.255 74.8133 155.464 73.8422C155.685 72.86 155.878 71.0778 156.044 68.4955C156.044 68.363 156.105 68.2968 156.226 68.2968H161.506C161.639 68.2968 161.705 68.363 161.705 68.4955V75.6465H162.566C162.698 75.6465 162.765 75.7072 162.765 75.8286V78.9241C162.765 79.0565 162.698 79.1227 162.566 79.1227H161.655C161.523 79.1227 161.457 79.0565 161.457 78.9241V76.8549H155.316V78.9241C155.316 79.0565 155.255 79.1227 155.133 79.1227ZM157.302 69.5218C157.203 71.2985 157.054 72.678 156.855 73.6601C156.667 74.6313 156.408 75.2934 156.077 75.6465H160.348V69.5218H157.302Z" fill="white"/>
<path d="M165.715 76.8549H164.539C164.418 76.8549 164.357 76.7942 164.357 76.6728V68.4955C164.357 68.363 164.418 68.2968 164.539 68.2968H165.516C165.637 68.2968 165.698 68.363 165.698 68.4955V72.8987C165.698 73.0863 165.693 73.4229 165.682 73.9084C165.682 74.383 165.682 74.7195 165.682 74.9182C166.288 73.8146 166.774 72.987 167.138 72.4352L169.803 68.4293C169.858 68.341 169.936 68.2968 170.035 68.2968H171.194C171.315 68.2968 171.376 68.363 171.376 68.4955V76.6728C171.376 76.7942 171.315 76.8549 171.194 76.8549H170.234C170.101 76.8549 170.035 76.7942 170.035 76.6728V72.4021C170.035 71.8172 170.046 71.1275 170.068 70.3329H170.052C169.61 71.1606 169.136 71.9606 168.628 72.7331L165.946 76.739C165.902 76.8163 165.825 76.8549 165.715 76.8549Z" fill="white"/>
<path d="M180.621 73.7925C180.621 74.7747 180.29 75.5638 179.628 76.1597C178.977 76.7446 178.094 77.037 176.98 77.037C175.865 77.037 174.977 76.739 174.314 76.1431C173.663 75.5472 173.338 74.7637 173.338 73.7925V71.4089C173.338 70.4267 173.669 69.6321 174.331 69.0252C174.993 68.4182 175.876 68.1147 176.98 68.1147C178.094 68.1147 178.977 68.4182 179.628 69.0252C180.29 69.6321 180.621 70.4267 180.621 71.4089V73.7925ZM174.712 73.7925C174.712 74.4216 174.905 74.9182 175.291 75.2823C175.688 75.6465 176.251 75.8286 176.98 75.8286C177.708 75.8286 178.271 75.6465 178.668 75.2823C179.065 74.9182 179.264 74.4216 179.264 73.7925V71.4089C179.264 70.7688 179.065 70.2667 178.668 69.9025C178.271 69.5273 177.708 69.3397 176.98 69.3397C176.251 69.3397 175.688 69.5273 175.291 69.9025C174.905 70.2667 174.712 70.7688 174.712 71.4089V73.7925Z" fill="white"/>
<path d="M189.395 76.8549H188.237C188.137 76.8549 188.054 76.8163 187.988 76.739L184.86 72.9814L183.916 73.925V76.6728C183.916 76.7942 183.85 76.8549 183.717 76.8549H182.774C182.653 76.8549 182.592 76.7942 182.592 76.6728V68.4955C182.592 68.363 182.653 68.2968 182.774 68.2968H183.717C183.85 68.2968 183.916 68.363 183.916 68.4955V72.2531L187.723 68.3962C187.779 68.3299 187.856 68.2968 187.955 68.2968H189.147C189.224 68.2968 189.274 68.3244 189.296 68.3796C189.318 68.4237 189.301 68.4734 189.246 68.5286L185.77 72.0379L189.511 76.6232C189.555 76.6894 189.566 76.7446 189.544 76.7887C189.522 76.8328 189.472 76.8549 189.395 76.8549Z" fill="white"/>
<path d="M196.526 76.0769C195.654 76.717 194.677 77.037 193.596 77.037C192.514 77.037 191.653 76.7446 191.013 76.1597C190.373 75.5638 190.053 74.7913 190.053 73.8422V71.3261C190.053 70.377 190.373 69.6045 191.013 69.0086C191.653 68.4127 192.509 68.1147 193.579 68.1147C194.539 68.1147 195.439 68.3906 196.277 68.9424C196.388 69.0197 196.404 69.1135 196.327 69.2238L195.897 69.9025C195.819 70.0018 195.731 70.0184 195.632 69.9522C195.003 69.5439 194.33 69.3397 193.612 69.3397C192.917 69.3397 192.376 69.5218 191.99 69.886C191.604 70.2501 191.411 70.7302 191.411 71.3261V73.8422C191.411 74.4492 191.604 74.9347 191.99 75.2989C192.376 75.652 192.911 75.8286 193.596 75.8286C194.357 75.8286 195.097 75.5858 195.814 75.1003C195.913 75.012 196.001 75.023 196.079 75.1334L196.559 75.8121C196.636 75.9224 196.625 76.0107 196.526 76.0769Z" fill="white"/>
<path d="M199.484 76.8549H198.309C198.187 76.8549 198.127 76.7942 198.127 76.6728V68.4955C198.127 68.363 198.187 68.2968 198.309 68.2968H199.285C199.407 68.2968 199.468 68.363 199.468 68.4955V72.8987C199.468 73.0863 199.462 73.4229 199.451 73.9084C199.451 74.383 199.451 74.7195 199.451 74.9182C200.058 73.8146 200.544 72.987 200.908 72.4352L203.573 68.4293C203.628 68.341 203.705 68.2968 203.805 68.2968H204.963C205.085 68.2968 205.145 68.363 205.145 68.4955V76.6728C205.145 76.7942 205.085 76.8549 204.963 76.8549H204.003C203.871 76.8549 203.805 76.7942 203.805 76.6728V72.4021C203.805 71.8172 203.816 71.1275 203.838 70.3329H203.821C203.38 71.1606 202.905 71.9606 202.398 72.7331L199.716 76.739C199.672 76.8163 199.594 76.8549 199.484 76.8549Z" fill="white"/>
<path d="M207.703 79.1227H206.776C206.655 79.1227 206.594 79.0565 206.594 78.9241V75.8286C206.594 75.7072 206.655 75.6465 206.776 75.6465H207.14C207.527 75.4148 207.825 74.8133 208.034 73.8422C208.255 72.86 208.448 71.0778 208.614 68.4955C208.614 68.363 208.674 68.2968 208.796 68.2968H214.076C214.209 68.2968 214.275 68.363 214.275 68.4955V75.6465H215.136C215.268 75.6465 215.334 75.7072 215.334 75.8286V78.9241C215.334 79.0565 215.268 79.1227 215.136 79.1227H214.225C214.093 79.1227 214.027 79.0565 214.027 78.9241V76.8549H207.885V78.9241C207.885 79.0565 207.825 79.1227 207.703 79.1227ZM209.872 69.5218C209.772 71.2985 209.623 72.678 209.425 73.6601C209.237 74.6313 208.978 75.2934 208.647 75.6465H212.918V69.5218H209.872Z" fill="white"/>
<path d="M224.37 72.5345L227.25 76.6232C227.349 76.7777 227.311 76.8549 227.134 76.8549H225.909C225.81 76.8549 225.738 76.8163 225.694 76.739L223.542 73.478L221.39 76.739C221.346 76.8163 221.269 76.8549 221.158 76.8549H219.933C219.757 76.8549 219.718 76.7777 219.817 76.6232L222.698 72.5345L220 68.5286C219.955 68.4734 219.944 68.4237 219.966 68.3796C219.989 68.3244 220.038 68.2968 220.115 68.2968H221.274C221.362 68.2968 221.44 68.341 221.506 68.4293L223.542 71.5744L225.578 68.4293C225.644 68.341 225.716 68.2968 225.793 68.2968H226.952C227.029 68.2968 227.079 68.3244 227.101 68.3796C227.134 68.4237 227.129 68.4734 227.084 68.5286L224.37 72.5345Z" fill="white"/>
<path d="M230.715 73.9084C230.527 75.034 230.24 75.8121 229.854 76.2424C229.468 76.6728 228.855 76.8991 228.016 76.9211C227.895 76.9211 227.834 76.8604 227.834 76.739V75.8948C227.834 75.7845 227.895 75.7183 228.016 75.6962C228.403 75.6741 228.701 75.5196 228.91 75.2327C229.12 74.9458 229.286 74.394 229.407 73.5774C229.583 72.3634 229.721 70.6695 229.821 68.4955C229.821 68.363 229.887 68.2968 230.019 68.2968H235.432C235.565 68.2968 235.631 68.363 235.631 68.4955V76.6728C235.631 76.7942 235.565 76.8549 235.432 76.8549H234.456C234.334 76.8549 234.274 76.7942 234.274 76.6728V69.5218H231.095C231.04 70.9233 230.913 72.3855 230.715 73.9084Z" fill="white"/>
<path d="M244.879 73.7925C244.879 74.7747 244.548 75.5638 243.886 76.1597C243.234 76.7446 242.352 77.037 241.237 77.037C240.122 77.037 239.234 76.739 238.572 76.1431C237.921 75.5472 237.595 74.7637 237.595 73.7925V71.4089C237.595 70.4267 237.926 69.6321 238.588 69.0252C239.251 68.4182 240.133 68.1147 241.237 68.1147C242.352 68.1147 243.234 68.4182 243.886 69.0252C244.548 69.6321 244.879 70.4267 244.879 71.4089V73.7925ZM238.969 73.7925C238.969 74.4216 239.162 74.9182 239.549 75.2823C239.946 75.6465 240.509 75.8286 241.237 75.8286C241.965 75.8286 242.528 75.6465 242.925 75.2823C243.323 74.9182 243.521 74.4216 243.521 73.7925V71.4089C243.521 70.7688 243.323 70.2667 242.925 69.9025C242.528 69.5273 241.965 69.3397 241.237 69.3397C240.509 69.3397 239.946 69.5273 239.549 69.9025C239.162 70.2667 238.969 70.7688 238.969 71.4089V73.7925Z" fill="white"/>
<path d="M246.965 68.7107C247.991 68.3134 249.062 68.1147 250.176 68.1147C251.313 68.1147 252.213 68.4127 252.875 69.0086C253.537 69.5935 253.868 70.4929 253.868 71.7068V73.5277C253.868 74.6202 253.537 75.481 252.875 76.11C252.213 76.728 251.335 77.037 250.243 77.037C249.481 77.037 248.797 76.866 248.19 76.5239V79.818C248.19 79.9394 248.124 80.0001 247.991 80.0001H247.015C246.893 80.0001 246.833 79.9394 246.833 79.818V68.9259C246.833 68.8155 246.877 68.7438 246.965 68.7107ZM250.16 75.8286C251.716 75.8286 252.494 75.0616 252.494 73.5277V71.7068C252.494 70.1067 251.71 69.3066 250.143 69.3066C249.371 69.3066 248.72 69.4169 248.19 69.6377V75.2327C248.764 75.63 249.421 75.8286 250.16 75.8286Z" fill="white"/>
<path d="M255.689 68.9755C256.527 68.4017 257.57 68.1147 258.817 68.1147C259.855 68.1147 260.66 68.3906 261.234 68.9424C261.819 69.4832 262.111 70.2777 262.111 71.3261V76.2921C262.111 76.4025 262.062 76.4742 261.962 76.5073C260.991 76.8604 259.926 77.037 258.768 77.037C257.741 77.037 256.891 76.8163 256.218 76.3749C255.545 75.9334 255.209 75.2492 255.209 74.3223C255.209 73.4725 255.529 72.8214 256.169 72.369C256.809 71.9165 257.675 71.6903 258.768 71.6903C259.341 71.6903 260.004 71.7565 260.754 71.8889V71.3592C260.754 70.675 260.599 70.1674 260.29 69.8363C259.981 69.5052 259.474 69.3397 258.768 69.3397C257.885 69.3397 257.101 69.5439 256.417 69.9522C256.318 70.0184 256.235 70.0018 256.169 69.9025L255.689 69.2073C255.633 69.1079 255.633 69.0307 255.689 68.9755ZM256.566 74.3223C256.566 74.8078 256.765 75.183 257.162 75.4479C257.57 75.7017 258.105 75.8286 258.768 75.8286C259.43 75.8286 260.092 75.7293 260.754 75.5306V73.0476C260.048 72.9152 259.386 72.849 258.768 72.849C257.3 72.849 256.566 73.3401 256.566 74.3223Z" fill="white"/>
</svg>
