<svg width="44" height="64" viewBox="0 0 44 64" fill="none" xmlns="http://www.w3.org/2000/svg">
<path fill-rule="evenodd" clip-rule="evenodd" d="M0.480078 42.2443C2.16259 47.5787 8.39689 53.0171 13.85 53.7452C15.0518 53.9087 16.2085 53.8344 17.2902 53.4926C17.5906 53.4332 17.3052 54.6219 17.4103 55.0379C19.874 53.5372 21.7067 51.3826 26.4088 50.7734C26.7092 50.7585 26.0783 51.8878 26.2736 52.3039C31.7267 47.8016 38.9975 53.8046 42.1823 50.2236C37.1047 57.46 28.1814 61.5016 18.9727 59.8671C9.55362 58.1583 2.52313 51.0111 0.480078 42.2443Z" fill="white"/>
<path fill-rule="evenodd" clip-rule="evenodd" d="M42.2874 49.971C38.5168 59.5848 28.4368 65.5284 17.9511 63.6562C6.78949 61.665 -0.841896 51.4717 0.0744714 40.3274V40.2977C0.0744714 40.3572 0.0894938 40.4166 0.0894938 40.476C0.134561 40.8029 0.194651 41.1298 0.269763 41.4419C0.329852 41.6796 0.389942 41.9174 0.465054 42.1551C2.5081 50.9368 9.53859 58.0691 18.9426 59.7482C28.1514 61.3976 37.0897 57.3411 42.1522 50.1047C42.2123 50.075 42.2574 50.0155 42.2874 49.971Z" fill="white"/>
<path fill-rule="evenodd" clip-rule="evenodd" d="M0.480078 42.17C2.16259 47.5044 8.39689 52.9428 13.85 53.6709C15.0518 53.8344 16.2085 53.7601 17.2902 53.4183C17.5906 53.3589 17.3052 54.5476 17.4103 54.9636C19.874 53.4629 21.7067 51.3083 26.4088 50.6991C26.7092 50.6842 26.0783 51.8135 26.2736 52.2296C31.7267 47.7273 38.9975 53.7303 42.1823 50.1493C37.1047 57.3857 28.1814 61.4273 18.9727 59.7928C9.55362 58.084 2.52313 50.9368 0.480078 42.17Z" fill="white"/>
<path d="M43.8047 40.1492C41.1608 24.0122 21.872 0 21.872 0C21.872 0 4.80653 21.2485 0.57021 37.2071C0.525142 37.3557 0.495097 37.5043 0.45003 37.6529V37.6677C0.404963 37.8757 0.344873 38.0838 0.299806 38.2918C1.42649 37.4151 2.31281 36.7019 2.46303 36.479C3.13904 35.4537 11.852 27.2069 11.852 27.2069C11.9121 28.0093 11.9422 28.0836 11.9722 28.2916L8.77245 32.6156L12.1375 29.0643L13.0238 30.9217L12.5881 32.4522L13.3843 31.7687C13.3843 31.7687 13.82 33.7895 13.8801 34.0867C13.9251 34.3096 13.189 35.6023 13.144 35.8846C13.0989 36.1669 10.9507 39.109 10.8455 39.2576C13.8951 35.4834 13.2341 36.3898 14.1955 34.7851L16.1034 36.2412C16.1034 36.5087 16.4038 37.2962 16.6292 37.9055C16.7343 38.1878 16.9146 38.4552 16.8545 38.5593C11.2962 48.2622 17.1099 38.8416 17.4254 39.0942C17.9962 39.5548 18.7924 40.1195 18.7924 40.1195L19.7538 41.7985L22.3828 44.5177L20.8955 41.3379L23.3141 40.5058L30.9756 44.1611L23.2841 36.0927L20.1895 34.6067L16.5841 28.7671C17.2 28.0985 18.2816 27.4001 18.507 27.2218L20.1444 25.0969C20.2496 25.0375 24.3507 19.1385 24.8314 18.6333C24.8164 18.8859 24.6962 20.6541 24.6061 20.9067C24.8014 21.5308 25.0417 22.4966 25.0417 22.7789C25.0417 22.9275 20.55 29.4804 20.4749 29.5844C20.55 29.5844 25.2971 23.7894 25.4173 23.9082C27.8209 26.3451 27.22 24.3689 25.2671 29.4358C25.237 29.5101 27.3251 26.2857 27.3702 26.3748C27.5655 26.88 28.1814 28.2619 28.7072 29.2575C28.9325 29.6884 26.2736 35.2754 26.3186 35.32C26.3186 35.32 29.3081 30.0153 29.5184 29.9856C29.9691 29.9113 31.4713 30.2382 31.5314 30.2976C31.6215 30.4016 29.7888 30.5799 29.9991 30.9366C30.57 31.9321 32.1623 33.4329 32.9886 34.2501C33.1688 34.4284 31.8018 39.1239 31.8318 39.1685C31.8318 39.1685 33.7247 35.6023 33.8899 35.6915C35.7978 36.7316 39.1778 37.9352 39.3881 38.1432C39.6285 38.3958 37.2399 43.8788 37.3451 43.8937C37.7357 43.9234 40.4848 38.0838 40.9204 38.3661C41.8518 39.005 42.9635 40.1492 44 41.1596C43.9099 40.8475 43.8498 40.4909 43.8047 40.1492ZM21.7368 39.1685L18.3117 34.1461C20.6251 36.8059 19.844 35.6617 21.7368 39.1685ZM17.4254 34.0867C14.5561 29.9856 15.5325 31.5309 13.1289 27.2812C15.8931 30.9366 14.9166 29.3912 17.4254 34.0867ZM28.2114 25.7507L26.2285 22.1697L28.4067 25.1861L29.5785 25.6467L28.2114 25.7507ZM31.6966 29.3021L31.0357 26.9692L35.5123 34.1164L31.6966 29.3021Z" fill="white"/>
</svg>
