<svg width="32" height="32" viewBox="0 0 32 32" fill="none" xmlns="http://www.w3.org/2000/svg">
<path d="M30.8378 1.53814L24.3379 0.0381751C23.6317 -0.124322 22.9067 0.244421 22.6192 0.906907L19.6192 7.90676C19.3568 8.51925 19.5317 9.23798 20.0505 9.65672L23.8379 12.7567C21.588 17.5503 17.6568 21.5377 12.7631 23.8314L9.6632 20.044C9.23821 19.5253 8.52572 19.3503 7.91323 19.6128L0.913377 22.6127C0.24464 22.9064 -0.124102 23.6314 0.0383943 24.3377L1.53836 30.8375C1.69461 31.5125 2.2946 32 3.00083 32C19.0068 32 32.0002 19.0315 32.0002 3.00061C32.0002 2.30063 31.519 1.69439 30.8378 1.53814Z" fill="white"/>
</svg>
