<svg width="22" height="15" viewBox="0 0 22 15" fill="none" xmlns="http://www.w3.org/2000/svg">
<path d="M3.86081 15C7.89104 13.8573 11.7983 9.24741 10.4643 4.14919C9.73586 1.39497 7.36124 -0.275133 4.7028 0.0374021C2.19574 0.330403 0.161703 2.55721 0.0103328 5.14539C-0.150498 7.88984 1.5808 10.2924 4.18247 10.8882C4.75011 11.0152 5.34613 11.0054 6.01783 11.064C5.96107 12.7048 5.09069 13.9159 3.86081 15Z" fill="#5A5A5A"/>
<path d="M15.2325 14.9609C19.3573 13.7694 22.2144 9.72598 21.9874 5.48723C21.836 2.70371 19.8966 0.418304 17.3706 0.0569355C14.873 -0.304433 12.4416 1.22894 11.5996 3.69992C10.3319 7.42103 13.1228 11.2593 16.9449 11.0347C17.0489 11.0249 17.1625 11.0347 17.3422 11.0347C17.2003 12.6755 16.4151 13.9257 15.2325 14.9609Z" fill="#5A5A5A"/>
</svg>
